<mxfile host="app.diagrams.net" modified="2024-05-26T08:54:00.015Z" agent="Mozilla/5.0 (Macintosh; Intel Mac OS X 10_15_7) AppleWebKit/537.36 (KHTML, like Gecko) Chrome/125.0.0.0 Safari/537.36" etag="3L0W9zJqyigvOmd6kLBi" version="24.4.8" type="github">
  <diagram name="第 1 页" id="TWkybqMjBzbYzwkUaGh_">
    <mxGraphModel dx="2074" dy="1121" grid="1" gridSize="10" guides="1" tooltips="1" connect="1" arrows="1" fold="1" page="1" pageScale="1" pageWidth="3300" pageHeight="4681" math="0" shadow="0">
      <root>
        <mxCell id="0" />
        <mxCell id="1" parent="0" />
        <mxCell id="N8BHTTCopQjX3QlfMauT-35" value="" style="rounded=1;whiteSpace=wrap;html=1;dashed=1;" vertex="1" parent="1">
          <mxGeometry x="1800" y="450" width="610" height="140" as="geometry" />
        </mxCell>
        <mxCell id="N8BHTTCopQjX3QlfMauT-33" value="" style="rounded=1;whiteSpace=wrap;html=1;dashed=1;" vertex="1" parent="1">
          <mxGeometry x="1800" y="280" width="610" height="140" as="geometry" />
        </mxCell>
        <mxCell id="N8BHTTCopQjX3QlfMauT-12" style="rounded=0;orthogonalLoop=1;jettySize=auto;html=1;exitX=0.5;exitY=1;exitDx=0;exitDy=0;" edge="1" parent="1" source="N8BHTTCopQjX3QlfMauT-1" target="N8BHTTCopQjX3QlfMauT-7">
          <mxGeometry relative="1" as="geometry" />
        </mxCell>
        <mxCell id="N8BHTTCopQjX3QlfMauT-19" value="shuffle" style="edgeLabel;html=1;align=center;verticalAlign=middle;resizable=0;points=[];" vertex="1" connectable="0" parent="N8BHTTCopQjX3QlfMauT-12">
          <mxGeometry x="-0.1395" y="-1" relative="1" as="geometry">
            <mxPoint as="offset" />
          </mxGeometry>
        </mxCell>
        <mxCell id="N8BHTTCopQjX3QlfMauT-13" style="rounded=0;orthogonalLoop=1;jettySize=auto;html=1;exitX=0.5;exitY=1;exitDx=0;exitDy=0;" edge="1" parent="1" source="N8BHTTCopQjX3QlfMauT-1" target="N8BHTTCopQjX3QlfMauT-9">
          <mxGeometry relative="1" as="geometry" />
        </mxCell>
        <mxCell id="N8BHTTCopQjX3QlfMauT-43" value="shuffle" style="edgeLabel;html=1;align=center;verticalAlign=middle;resizable=0;points=[];" vertex="1" connectable="0" parent="N8BHTTCopQjX3QlfMauT-13">
          <mxGeometry x="-0.0704" y="2" relative="1" as="geometry">
            <mxPoint as="offset" />
          </mxGeometry>
        </mxCell>
        <mxCell id="N8BHTTCopQjX3QlfMauT-14" style="rounded=0;orthogonalLoop=1;jettySize=auto;html=1;exitX=0.5;exitY=1;exitDx=0;exitDy=0;" edge="1" parent="1" source="N8BHTTCopQjX3QlfMauT-1" target="N8BHTTCopQjX3QlfMauT-10">
          <mxGeometry relative="1" as="geometry" />
        </mxCell>
        <mxCell id="N8BHTTCopQjX3QlfMauT-44" value="shuffle" style="edgeLabel;html=1;align=center;verticalAlign=middle;resizable=0;points=[];" vertex="1" connectable="0" parent="N8BHTTCopQjX3QlfMauT-14">
          <mxGeometry x="-0.1129" y="3" relative="1" as="geometry">
            <mxPoint as="offset" />
          </mxGeometry>
        </mxCell>
        <mxCell id="N8BHTTCopQjX3QlfMauT-73" style="rounded=0;orthogonalLoop=1;jettySize=auto;html=1;exitX=0.5;exitY=0;exitDx=0;exitDy=0;" edge="1" parent="1" source="N8BHTTCopQjX3QlfMauT-1" target="N8BHTTCopQjX3QlfMauT-71">
          <mxGeometry relative="1" as="geometry" />
        </mxCell>
        <mxCell id="N8BHTTCopQjX3QlfMauT-76" value="pull file" style="edgeLabel;html=1;align=center;verticalAlign=middle;resizable=0;points=[];" vertex="1" connectable="0" parent="N8BHTTCopQjX3QlfMauT-73">
          <mxGeometry x="0.1029" y="1" relative="1" as="geometry">
            <mxPoint as="offset" />
          </mxGeometry>
        </mxCell>
        <mxCell id="N8BHTTCopQjX3QlfMauT-1" value="CN1" style="rounded=0;whiteSpace=wrap;html=1;fillColor=#cce5ff;strokeColor=#36393d;" vertex="1" parent="1">
          <mxGeometry x="1870" y="320" width="120" height="60" as="geometry" />
        </mxCell>
        <mxCell id="N8BHTTCopQjX3QlfMauT-21" style="rounded=0;orthogonalLoop=1;jettySize=auto;html=1;exitX=0.5;exitY=1;exitDx=0;exitDy=0;" edge="1" parent="1" source="N8BHTTCopQjX3QlfMauT-2" target="N8BHTTCopQjX3QlfMauT-9">
          <mxGeometry relative="1" as="geometry" />
        </mxCell>
        <mxCell id="N8BHTTCopQjX3QlfMauT-22" style="rounded=0;orthogonalLoop=1;jettySize=auto;html=1;exitX=0.5;exitY=1;exitDx=0;exitDy=0;" edge="1" parent="1" source="N8BHTTCopQjX3QlfMauT-2" target="N8BHTTCopQjX3QlfMauT-10">
          <mxGeometry relative="1" as="geometry" />
        </mxCell>
        <mxCell id="N8BHTTCopQjX3QlfMauT-74" style="rounded=0;orthogonalLoop=1;jettySize=auto;html=1;exitX=0.5;exitY=0;exitDx=0;exitDy=0;" edge="1" parent="1" source="N8BHTTCopQjX3QlfMauT-2" target="N8BHTTCopQjX3QlfMauT-71">
          <mxGeometry relative="1" as="geometry" />
        </mxCell>
        <mxCell id="N8BHTTCopQjX3QlfMauT-79" value="pull file" style="edgeLabel;html=1;align=center;verticalAlign=middle;resizable=0;points=[];" vertex="1" connectable="0" parent="N8BHTTCopQjX3QlfMauT-74">
          <mxGeometry x="-0.0797" relative="1" as="geometry">
            <mxPoint as="offset" />
          </mxGeometry>
        </mxCell>
        <mxCell id="N8BHTTCopQjX3QlfMauT-2" value="CN2" style="rounded=0;whiteSpace=wrap;html=1;fillColor=#cce5ff;strokeColor=#36393d;" vertex="1" parent="1">
          <mxGeometry x="2053" y="320" width="120" height="60" as="geometry" />
        </mxCell>
        <mxCell id="N8BHTTCopQjX3QlfMauT-23" style="rounded=0;orthogonalLoop=1;jettySize=auto;html=1;exitX=0.5;exitY=1;exitDx=0;exitDy=0;" edge="1" parent="1" source="N8BHTTCopQjX3QlfMauT-3" target="N8BHTTCopQjX3QlfMauT-7">
          <mxGeometry relative="1" as="geometry" />
        </mxCell>
        <mxCell id="N8BHTTCopQjX3QlfMauT-24" style="rounded=0;orthogonalLoop=1;jettySize=auto;html=1;exitX=0.5;exitY=1;exitDx=0;exitDy=0;" edge="1" parent="1" source="N8BHTTCopQjX3QlfMauT-3" target="N8BHTTCopQjX3QlfMauT-9">
          <mxGeometry relative="1" as="geometry" />
        </mxCell>
        <mxCell id="N8BHTTCopQjX3QlfMauT-75" value="pull file" style="rounded=0;orthogonalLoop=1;jettySize=auto;html=1;exitX=0.5;exitY=0;exitDx=0;exitDy=0;" edge="1" parent="1" source="N8BHTTCopQjX3QlfMauT-3" target="N8BHTTCopQjX3QlfMauT-71">
          <mxGeometry relative="1" as="geometry" />
        </mxCell>
        <mxCell id="N8BHTTCopQjX3QlfMauT-3" value="CN3" style="rounded=0;whiteSpace=wrap;html=1;fillColor=#cce5ff;strokeColor=#36393d;" vertex="1" parent="1">
          <mxGeometry x="2233" y="320" width="120" height="60" as="geometry" />
        </mxCell>
        <mxCell id="N8BHTTCopQjX3QlfMauT-7" value="tablet1/.." style="strokeWidth=2;html=1;shape=mxgraph.flowchart.multi-document;whiteSpace=wrap;" vertex="1" parent="1">
          <mxGeometry x="1884.5" y="510" width="94" height="30" as="geometry" />
        </mxCell>
        <mxCell id="N8BHTTCopQjX3QlfMauT-9" value="tablet2/.." style="strokeWidth=2;html=1;shape=mxgraph.flowchart.multi-document;whiteSpace=wrap;" vertex="1" parent="1">
          <mxGeometry x="2067.5" y="510" width="94" height="30" as="geometry" />
        </mxCell>
        <mxCell id="N8BHTTCopQjX3QlfMauT-10" value="tablet3/.." style="strokeWidth=2;html=1;shape=mxgraph.flowchart.multi-document;whiteSpace=wrap;" vertex="1" parent="1">
          <mxGeometry x="2247.5" y="510" width="94" height="30" as="geometry" />
        </mxCell>
        <mxCell id="N8BHTTCopQjX3QlfMauT-20" style="rounded=0;orthogonalLoop=1;jettySize=auto;html=1;exitX=0.5;exitY=1;exitDx=0;exitDy=0;" edge="1" parent="1" source="N8BHTTCopQjX3QlfMauT-2" target="N8BHTTCopQjX3QlfMauT-7">
          <mxGeometry relative="1" as="geometry" />
        </mxCell>
        <mxCell id="N8BHTTCopQjX3QlfMauT-25" style="rounded=0;orthogonalLoop=1;jettySize=auto;html=1;exitX=0.5;exitY=1;exitDx=0;exitDy=0;" edge="1" parent="1" source="N8BHTTCopQjX3QlfMauT-3" target="N8BHTTCopQjX3QlfMauT-10">
          <mxGeometry relative="1" as="geometry" />
        </mxCell>
        <mxCell id="N8BHTTCopQjX3QlfMauT-36" value="" style="edgeStyle=orthogonalEdgeStyle;rounded=0;orthogonalLoop=1;jettySize=auto;html=1;exitX=0;exitY=0.5;exitDx=0;exitDy=0;entryX=0;entryY=0.5;entryDx=0;entryDy=0;entryPerimeter=0;dashed=1;curved=1;dashPattern=1 4;startArrow=classic;startFill=1;" edge="1" parent="1" source="N8BHTTCopQjX3QlfMauT-1" target="N8BHTTCopQjX3QlfMauT-7">
          <mxGeometry relative="1" as="geometry">
            <Array as="points">
              <mxPoint x="1840" y="350" />
              <mxPoint x="1840" y="525" />
            </Array>
          </mxGeometry>
        </mxCell>
        <mxCell id="N8BHTTCopQjX3QlfMauT-41" value="compaction" style="edgeLabel;html=1;align=center;verticalAlign=middle;resizable=0;points=[];" vertex="1" connectable="0" parent="N8BHTTCopQjX3QlfMauT-36">
          <mxGeometry x="-0.0701" y="-1" relative="1" as="geometry">
            <mxPoint x="-10" y="254" as="offset" />
          </mxGeometry>
        </mxCell>
        <mxCell id="N8BHTTCopQjX3QlfMauT-39" style="edgeStyle=orthogonalEdgeStyle;rounded=0;orthogonalLoop=1;jettySize=auto;html=1;exitX=1;exitY=0.5;exitDx=0;exitDy=0;entryX=1;entryY=0.5;entryDx=0;entryDy=0;entryPerimeter=0;dashed=1;dashPattern=1 4;startArrow=classic;startFill=1;curved=1;" edge="1" parent="1" source="N8BHTTCopQjX3QlfMauT-3" target="N8BHTTCopQjX3QlfMauT-10">
          <mxGeometry relative="1" as="geometry">
            <Array as="points">
              <mxPoint x="2390" y="350" />
              <mxPoint x="2390" y="525" />
            </Array>
          </mxGeometry>
        </mxCell>
        <mxCell id="N8BHTTCopQjX3QlfMauT-42" value="compaction" style="edgeLabel;html=1;align=center;verticalAlign=middle;resizable=0;points=[];" vertex="1" connectable="0" parent="N8BHTTCopQjX3QlfMauT-39">
          <mxGeometry x="-0.071" y="-1" relative="1" as="geometry">
            <mxPoint as="offset" />
          </mxGeometry>
        </mxCell>
        <mxCell id="N8BHTTCopQjX3QlfMauT-40" style="edgeStyle=orthogonalEdgeStyle;rounded=0;orthogonalLoop=1;jettySize=auto;html=1;exitX=1;exitY=0.5;exitDx=0;exitDy=0;entryX=1;entryY=0.5;entryDx=0;entryDy=0;entryPerimeter=0;dashed=1;dashPattern=1 4;startArrow=classic;startFill=1;curved=1;" edge="1" parent="1" source="N8BHTTCopQjX3QlfMauT-2" target="N8BHTTCopQjX3QlfMauT-9">
          <mxGeometry relative="1" as="geometry">
            <Array as="points">
              <mxPoint x="2210" y="350" />
              <mxPoint x="2210" y="525" />
            </Array>
          </mxGeometry>
        </mxCell>
        <mxCell id="N8BHTTCopQjX3QlfMauT-45" value="" style="rounded=1;whiteSpace=wrap;html=1;dashed=1;" vertex="1" parent="1">
          <mxGeometry x="1800" y="610" width="610" height="160" as="geometry" />
        </mxCell>
        <mxCell id="N8BHTTCopQjX3QlfMauT-61" value="pull task" style="rounded=0;orthogonalLoop=1;jettySize=auto;html=1;exitX=0.5;exitY=0;exitDx=0;exitDy=0;" edge="1" parent="1" source="N8BHTTCopQjX3QlfMauT-46" target="N8BHTTCopQjX3QlfMauT-7">
          <mxGeometry relative="1" as="geometry" />
        </mxCell>
        <mxCell id="N8BHTTCopQjX3QlfMauT-63" style="rounded=0;orthogonalLoop=1;jettySize=auto;html=1;exitX=0.5;exitY=0;exitDx=0;exitDy=0;" edge="1" parent="1" source="N8BHTTCopQjX3QlfMauT-46" target="N8BHTTCopQjX3QlfMauT-10">
          <mxGeometry relative="1" as="geometry" />
        </mxCell>
        <mxCell id="N8BHTTCopQjX3QlfMauT-67" value="pull task" style="edgeLabel;html=1;align=center;verticalAlign=middle;resizable=0;points=[];" vertex="1" connectable="0" parent="N8BHTTCopQjX3QlfMauT-63">
          <mxGeometry x="0.0191" y="1" relative="1" as="geometry">
            <mxPoint as="offset" />
          </mxGeometry>
        </mxCell>
        <mxCell id="N8BHTTCopQjX3QlfMauT-70" style="edgeStyle=orthogonalEdgeStyle;rounded=0;orthogonalLoop=1;jettySize=auto;html=1;exitX=0.5;exitY=1;exitDx=0;exitDy=0;" edge="1" parent="1" source="N8BHTTCopQjX3QlfMauT-46" target="N8BHTTCopQjX3QlfMauT-69">
          <mxGeometry relative="1" as="geometry" />
        </mxCell>
        <mxCell id="N8BHTTCopQjX3QlfMauT-46" value="BE1" style="rounded=0;whiteSpace=wrap;html=1;fillColor=#cdeb8b;strokeColor=#36393d;" vertex="1" parent="1">
          <mxGeometry x="1983.75" y="634.17" width="120" height="50" as="geometry" />
        </mxCell>
        <mxCell id="N8BHTTCopQjX3QlfMauT-65" style="rounded=0;orthogonalLoop=1;jettySize=auto;html=1;exitX=0.5;exitY=0;exitDx=0;exitDy=0;" edge="1" parent="1" source="N8BHTTCopQjX3QlfMauT-47" target="N8BHTTCopQjX3QlfMauT-9">
          <mxGeometry relative="1" as="geometry" />
        </mxCell>
        <mxCell id="N8BHTTCopQjX3QlfMauT-68" value="pull task" style="edgeLabel;html=1;align=center;verticalAlign=middle;resizable=0;points=[];" vertex="1" connectable="0" parent="N8BHTTCopQjX3QlfMauT-65">
          <mxGeometry x="-0.2123" y="-2" relative="1" as="geometry">
            <mxPoint as="offset" />
          </mxGeometry>
        </mxCell>
        <mxCell id="N8BHTTCopQjX3QlfMauT-47" value="BE2" style="rounded=0;whiteSpace=wrap;html=1;fillColor=#cdeb8b;strokeColor=#36393d;" vertex="1" parent="1">
          <mxGeometry x="2166.75" y="635" width="120" height="50" as="geometry" />
        </mxCell>
        <mxCell id="N8BHTTCopQjX3QlfMauT-48" value="table1/.." style="strokeWidth=2;html=1;shape=mxgraph.flowchart.multi-document;whiteSpace=wrap;" vertex="1" parent="1">
          <mxGeometry x="1942.25" y="720" width="94" height="30" as="geometry" />
        </mxCell>
        <mxCell id="N8BHTTCopQjX3QlfMauT-49" value="table2/.." style="strokeWidth=2;html=1;shape=mxgraph.flowchart.multi-document;whiteSpace=wrap;" vertex="1" parent="1">
          <mxGeometry x="2179.75" y="720" width="94" height="30" as="geometry" />
        </mxCell>
        <mxCell id="N8BHTTCopQjX3QlfMauT-50" style="edgeStyle=orthogonalEdgeStyle;rounded=0;orthogonalLoop=1;jettySize=auto;html=1;exitX=0.5;exitY=1;exitDx=0;exitDy=0;entryX=0.5;entryY=0;entryDx=0;entryDy=0;entryPerimeter=0;" edge="1" parent="1" source="N8BHTTCopQjX3QlfMauT-46" target="N8BHTTCopQjX3QlfMauT-48">
          <mxGeometry relative="1" as="geometry" />
        </mxCell>
        <mxCell id="N8BHTTCopQjX3QlfMauT-51" style="edgeStyle=orthogonalEdgeStyle;rounded=0;orthogonalLoop=1;jettySize=auto;html=1;exitX=0.5;exitY=1;exitDx=0;exitDy=0;entryX=0.5;entryY=0;entryDx=0;entryDy=0;entryPerimeter=0;" edge="1" parent="1" source="N8BHTTCopQjX3QlfMauT-47" target="N8BHTTCopQjX3QlfMauT-49">
          <mxGeometry relative="1" as="geometry" />
        </mxCell>
        <mxCell id="N8BHTTCopQjX3QlfMauT-56" value="CN" style="text;html=1;align=center;verticalAlign=middle;whiteSpace=wrap;rounded=0;" vertex="1" parent="1">
          <mxGeometry x="1800" y="280" width="60" height="30" as="geometry" />
        </mxCell>
        <mxCell id="N8BHTTCopQjX3QlfMauT-57" value="HDFS" style="text;html=1;align=center;verticalAlign=middle;whiteSpace=wrap;rounded=0;" vertex="1" parent="1">
          <mxGeometry x="1800" y="560" width="60" height="30" as="geometry" />
        </mxCell>
        <mxCell id="N8BHTTCopQjX3QlfMauT-60" value="BE" style="text;html=1;align=center;verticalAlign=middle;whiteSpace=wrap;rounded=0;" vertex="1" parent="1">
          <mxGeometry x="1800" y="740" width="60" height="30" as="geometry" />
        </mxCell>
        <mxCell id="N8BHTTCopQjX3QlfMauT-69" value="table3/.." style="strokeWidth=2;html=1;shape=mxgraph.flowchart.multi-document;whiteSpace=wrap;" vertex="1" parent="1">
          <mxGeometry x="2053" y="720" width="94" height="30" as="geometry" />
        </mxCell>
        <mxCell id="N8BHTTCopQjX3QlfMauT-71" value="" style="shape=mxgraph.basic.layered_rect;whiteSpace=wrap;html=1;verticalLabelPosition=bottom;verticalAlign=top;dx=10;outlineConnect=0;" vertex="1" parent="1">
          <mxGeometry x="1990" y="130" width="236" height="90" as="geometry" />
        </mxCell>
        <mxCell id="N8BHTTCopQjX3QlfMauT-72" value="HDFS" style="text;html=1;align=center;verticalAlign=middle;whiteSpace=wrap;rounded=0;" vertex="1" parent="1">
          <mxGeometry x="2075" y="160" width="60" height="30" as="geometry" />
        </mxCell>
        <mxCell id="N8BHTTCopQjX3QlfMauT-80" value="FE" style="rounded=0;whiteSpace=wrap;html=1;fillColor=#ffff88;strokeColor=#36393d;" vertex="1" parent="1">
          <mxGeometry x="1520" y="315" width="120" height="60" as="geometry" />
        </mxCell>
        <mxCell id="N8BHTTCopQjX3QlfMauT-81" style="edgeStyle=orthogonalEdgeStyle;rounded=0;orthogonalLoop=1;jettySize=auto;html=1;" edge="1" parent="1" source="N8BHTTCopQjX3QlfMauT-83" target="N8BHTTCopQjX3QlfMauT-80">
          <mxGeometry relative="1" as="geometry" />
        </mxCell>
        <mxCell id="N8BHTTCopQjX3QlfMauT-82" value="提交任务" style="edgeLabel;html=1;align=center;verticalAlign=middle;resizable=0;points=[];" vertex="1" connectable="0" parent="N8BHTTCopQjX3QlfMauT-81">
          <mxGeometry x="0.025" y="1" relative="1" as="geometry">
            <mxPoint as="offset" />
          </mxGeometry>
        </mxCell>
        <mxCell id="N8BHTTCopQjX3QlfMauT-83" value="Actor" style="shape=umlActor;verticalLabelPosition=bottom;verticalAlign=top;html=1;outlineConnect=0;" vertex="1" parent="1">
          <mxGeometry x="1565" y="140" width="30" height="60" as="geometry" />
        </mxCell>
        <mxCell id="N8BHTTCopQjX3QlfMauT-84" value="FE" style="rounded=0;whiteSpace=wrap;html=1;fillColor=#ffff88;strokeColor=#36393d;" vertex="1" parent="1">
          <mxGeometry x="1530" y="325" width="120" height="60" as="geometry" />
        </mxCell>
        <mxCell id="N8BHTTCopQjX3QlfMauT-87" style="rounded=0;orthogonalLoop=1;jettySize=auto;html=1;entryX=0;entryY=0.5;entryDx=0;entryDy=0;exitX=1;exitY=0.25;exitDx=0;exitDy=0;startArrow=classic;startFill=1;" edge="1" parent="1" source="N8BHTTCopQjX3QlfMauT-85" target="N8BHTTCopQjX3QlfMauT-33">
          <mxGeometry relative="1" as="geometry" />
        </mxCell>
        <mxCell id="N8BHTTCopQjX3QlfMauT-89" value="1. load task" style="edgeLabel;html=1;align=center;verticalAlign=middle;resizable=0;points=[];" vertex="1" connectable="0" parent="N8BHTTCopQjX3QlfMauT-87">
          <mxGeometry x="-0.18" y="4" relative="1" as="geometry">
            <mxPoint as="offset" />
          </mxGeometry>
        </mxCell>
        <mxCell id="N8BHTTCopQjX3QlfMauT-88" style="edgeStyle=orthogonalEdgeStyle;rounded=0;orthogonalLoop=1;jettySize=auto;html=1;exitX=1;exitY=0.75;exitDx=0;exitDy=0;startArrow=classic;startFill=1;" edge="1" parent="1" source="N8BHTTCopQjX3QlfMauT-85">
          <mxGeometry relative="1" as="geometry">
            <mxPoint x="1800" y="380" as="targetPoint" />
          </mxGeometry>
        </mxCell>
        <mxCell id="N8BHTTCopQjX3QlfMauT-90" value="2. compaction task" style="edgeLabel;html=1;align=center;verticalAlign=middle;resizable=0;points=[];" vertex="1" connectable="0" parent="N8BHTTCopQjX3QlfMauT-88">
          <mxGeometry x="-0.1244" y="4" relative="1" as="geometry">
            <mxPoint as="offset" />
          </mxGeometry>
        </mxCell>
        <mxCell id="N8BHTTCopQjX3QlfMauT-91" style="rounded=0;orthogonalLoop=1;jettySize=auto;html=1;exitX=0.5;exitY=1;exitDx=0;exitDy=0;entryX=0;entryY=0.25;entryDx=0;entryDy=0;startArrow=classic;startFill=1;" edge="1" parent="1" source="N8BHTTCopQjX3QlfMauT-85" target="N8BHTTCopQjX3QlfMauT-45">
          <mxGeometry relative="1" as="geometry" />
        </mxCell>
        <mxCell id="N8BHTTCopQjX3QlfMauT-92" value="3. commit task" style="edgeLabel;html=1;align=center;verticalAlign=middle;resizable=0;points=[];" vertex="1" connectable="0" parent="N8BHTTCopQjX3QlfMauT-91">
          <mxGeometry x="0.0603" y="-1" relative="1" as="geometry">
            <mxPoint as="offset" />
          </mxGeometry>
        </mxCell>
        <mxCell id="N8BHTTCopQjX3QlfMauT-85" value="FE" style="rounded=0;whiteSpace=wrap;html=1;fillColor=#ffff88;strokeColor=#36393d;" vertex="1" parent="1">
          <mxGeometry x="1540" y="335" width="120" height="60" as="geometry" />
        </mxCell>
      </root>
    </mxGraphModel>
  </diagram>
</mxfile>
